<mxfile host="app.diagrams.net" modified="2020-10-02T20:52:23.781Z" agent="5.0 (Windows NT 10.0; Win64; x64) AppleWebKit/537.36 (KHTML, like Gecko) Chrome/85.0.4183.121 Safari/537.36" etag="Rj29c76wbuebsz73o_sd" version="13.7.7" type="github">
  <diagram id="kgpKYQtTHZ0yAKxKKP6v" name="Page-1">
    <mxGraphModel dx="2272" dy="762" grid="1" gridSize="10" guides="1" tooltips="1" connect="1" arrows="1" fold="1" page="1" pageScale="1" pageWidth="850" pageHeight="1100" math="0" shadow="0">
      <root>
        <mxCell id="0" />
        <mxCell id="1" parent="0" />
        <mxCell id="V2h9sWiuA5iDH5durcqd-1" value="/give-access-from-email" style="shape=umlLifeline;perimeter=lifelinePerimeter;container=1;collapsible=0;recursiveResize=0;rounded=0;shadow=0;strokeWidth=1;fillColor=#d5e8d4;strokeColor=#82b366;" vertex="1" parent="1">
          <mxGeometry x="-30" y="90" width="130" height="400" as="geometry" />
        </mxCell>
        <mxCell id="V2h9sWiuA5iDH5durcqd-2" value="User Reserves VM&#xa;Name, paperspace Email" style="verticalAlign=bottom;startArrow=oval;endArrow=block;startSize=8;shadow=0;strokeWidth=1;entryX=-0.1;entryY=0.254;entryDx=0;entryDy=0;entryPerimeter=0;" edge="1" parent="V2h9sWiuA5iDH5durcqd-1" target="V2h9sWiuA5iDH5durcqd-3">
          <mxGeometry x="-0.0476" relative="1" as="geometry">
            <mxPoint x="-110" y="80" as="sourcePoint" />
            <mxPoint x="40" y="70" as="targetPoint" />
            <mxPoint as="offset" />
          </mxGeometry>
        </mxCell>
        <mxCell id="V2h9sWiuA5iDH5durcqd-3" value="" style="points=[];perimeter=orthogonalPerimeter;rounded=0;shadow=0;strokeWidth=1;" vertex="1" parent="V2h9sWiuA5iDH5durcqd-1">
          <mxGeometry x="60" y="70" width="10" height="40" as="geometry" />
        </mxCell>
        <mxCell id="V2h9sWiuA5iDH5durcqd-4" value="" style="points=[];perimeter=orthogonalPerimeter;rounded=0;shadow=0;strokeWidth=1;" vertex="1" parent="V2h9sWiuA5iDH5durcqd-1">
          <mxGeometry x="60" y="300" width="10" height="40" as="geometry" />
        </mxCell>
        <mxCell id="V2h9sWiuA5iDH5durcqd-5" value="listUsers" style="shape=umlLifeline;perimeter=lifelinePerimeter;container=1;collapsible=0;recursiveResize=0;rounded=0;shadow=0;strokeWidth=1;" vertex="1" parent="1">
          <mxGeometry x="320" y="90" width="100" height="400" as="geometry" />
        </mxCell>
        <mxCell id="V2h9sWiuA5iDH5durcqd-6" value="" style="points=[];perimeter=orthogonalPerimeter;rounded=0;shadow=0;strokeWidth=1;" vertex="1" parent="V2h9sWiuA5iDH5durcqd-5">
          <mxGeometry x="45" y="80" width="10" height="50" as="geometry" />
        </mxCell>
        <mxCell id="V2h9sWiuA5iDH5durcqd-7" value="paperspaceEmail" style="verticalAlign=bottom;endArrow=block;entryX=0;entryY=0;shadow=0;strokeWidth=1;fillColor=#ffe6cc;strokeColor=#d79b00;" edge="1" parent="1" source="V2h9sWiuA5iDH5durcqd-19" target="V2h9sWiuA5iDH5durcqd-6">
          <mxGeometry relative="1" as="geometry">
            <mxPoint x="155" y="170" as="sourcePoint" />
          </mxGeometry>
        </mxCell>
        <mxCell id="V2h9sWiuA5iDH5durcqd-8" value="User" style="verticalAlign=bottom;endArrow=block;shadow=0;strokeWidth=2;fillColor=#ffe6cc;strokeColor=#d79b00;" edge="1" parent="1" source="V2h9sWiuA5iDH5durcqd-6" target="V2h9sWiuA5iDH5durcqd-19">
          <mxGeometry relative="1" as="geometry">
            <mxPoint x="120" y="210" as="sourcePoint" />
            <mxPoint x="40" y="209" as="targetPoint" />
            <Array as="points">
              <mxPoint x="280" y="220" />
            </Array>
          </mxGeometry>
        </mxCell>
        <mxCell id="V2h9sWiuA5iDH5durcqd-9" value="listMachines" style="shape=umlLifeline;perimeter=lifelinePerimeter;container=1;collapsible=0;recursiveResize=0;rounded=0;shadow=0;strokeWidth=1;" vertex="1" parent="1">
          <mxGeometry x="460" y="90" width="120" height="400" as="geometry" />
        </mxCell>
        <mxCell id="V2h9sWiuA5iDH5durcqd-10" value="" style="points=[];perimeter=orthogonalPerimeter;rounded=0;shadow=0;strokeWidth=1;" vertex="1" parent="V2h9sWiuA5iDH5durcqd-9">
          <mxGeometry x="55" y="170" width="10" height="60" as="geometry" />
        </mxCell>
        <mxCell id="V2h9sWiuA5iDH5durcqd-11" value="" style="verticalAlign=bottom;endArrow=block;shadow=0;strokeWidth=1;dashed=1;entryX=-0.267;entryY=0.021;entryDx=0;entryDy=0;entryPerimeter=0;" edge="1" parent="1" source="V2h9sWiuA5iDH5durcqd-18" target="V2h9sWiuA5iDH5durcqd-10">
          <mxGeometry relative="1" as="geometry">
            <mxPoint x="230" y="251" as="sourcePoint" />
            <mxPoint x="380" y="250.24" as="targetPoint" />
          </mxGeometry>
        </mxCell>
        <mxCell id="V2h9sWiuA5iDH5durcqd-12" value="state: ready" style="edgeLabel;html=1;align=center;verticalAlign=middle;resizable=0;points=[];" vertex="1" connectable="0" parent="V2h9sWiuA5iDH5durcqd-11">
          <mxGeometry x="0.1495" y="1" relative="1" as="geometry">
            <mxPoint x="-21" y="-9.51" as="offset" />
          </mxGeometry>
        </mxCell>
        <mxCell id="V2h9sWiuA5iDH5durcqd-13" value="returns:&#xa;OpenMachine" style="verticalAlign=bottom;endArrow=block;shadow=0;strokeWidth=2;exitX=0.029;exitY=0.99;exitDx=0;exitDy=0;exitPerimeter=0;fillColor=#ffe6cc;strokeColor=#d79b00;" edge="1" parent="1" source="V2h9sWiuA5iDH5durcqd-10" target="V2h9sWiuA5iDH5durcqd-18">
          <mxGeometry relative="1" as="geometry">
            <mxPoint x="375" y="270" as="sourcePoint" />
            <mxPoint x="230" y="309" as="targetPoint" />
          </mxGeometry>
        </mxCell>
        <mxCell id="V2h9sWiuA5iDH5durcqd-14" value="setMachineAccess" style="shape=umlLifeline;perimeter=lifelinePerimeter;container=1;collapsible=0;recursiveResize=0;rounded=0;shadow=0;strokeWidth=1;" vertex="1" parent="1">
          <mxGeometry x="620" y="90" width="110" height="400" as="geometry" />
        </mxCell>
        <mxCell id="V2h9sWiuA5iDH5durcqd-15" value="" style="points=[];perimeter=orthogonalPerimeter;rounded=0;shadow=0;strokeWidth=1;" vertex="1" parent="V2h9sWiuA5iDH5durcqd-14">
          <mxGeometry x="50" y="270" width="10" height="40" as="geometry" />
        </mxCell>
        <mxCell id="V2h9sWiuA5iDH5durcqd-16" value="UserID, OpenMachineID, enableAccess" style="verticalAlign=bottom;endArrow=block;entryX=0.233;entryY=0.021;shadow=0;strokeWidth=1;entryDx=0;entryDy=0;entryPerimeter=0;" edge="1" parent="1" source="V2h9sWiuA5iDH5durcqd-18" target="V2h9sWiuA5iDH5durcqd-15">
          <mxGeometry x="-0.0141" relative="1" as="geometry">
            <mxPoint x="340" y="330" as="sourcePoint" />
            <mxPoint x="525" y="330" as="targetPoint" />
            <mxPoint as="offset" />
          </mxGeometry>
        </mxCell>
        <mxCell id="V2h9sWiuA5iDH5durcqd-17" value="returns:&#xa;err, res" style="verticalAlign=bottom;endArrow=block;shadow=0;strokeWidth=1;exitX=0.033;exitY=1.004;exitDx=0;exitDy=0;exitPerimeter=0;" edge="1" parent="1" source="V2h9sWiuA5iDH5durcqd-15" target="V2h9sWiuA5iDH5durcqd-19">
          <mxGeometry relative="1" as="geometry">
            <mxPoint x="530.62" y="370" as="sourcePoint" />
            <mxPoint x="189.99666666666678" y="370" as="targetPoint" />
          </mxGeometry>
        </mxCell>
        <mxCell id="V2h9sWiuA5iDH5durcqd-18" value="giveAccessFromEmail" style="shape=umlLifeline;perimeter=lifelinePerimeter;container=1;collapsible=0;recursiveResize=0;rounded=0;shadow=0;strokeWidth=1;" vertex="1" parent="1">
          <mxGeometry x="160" y="90" width="120" height="400" as="geometry" />
        </mxCell>
        <mxCell id="V2h9sWiuA5iDH5durcqd-19" value="" style="points=[];perimeter=orthogonalPerimeter;rounded=0;shadow=0;strokeWidth=1;" vertex="1" parent="V2h9sWiuA5iDH5durcqd-18">
          <mxGeometry x="55" y="75" width="10" height="250" as="geometry" />
        </mxCell>
        <mxCell id="V2h9sWiuA5iDH5durcqd-20" value="" style="verticalAlign=bottom;endArrow=block;shadow=0;strokeWidth=1;dashed=1;exitX=1.367;exitY=0.238;exitDx=0;exitDy=0;exitPerimeter=0;" edge="1" parent="1" source="V2h9sWiuA5iDH5durcqd-3" target="V2h9sWiuA5iDH5durcqd-18">
          <mxGeometry relative="1" as="geometry">
            <mxPoint x="50" y="170" as="sourcePoint" />
            <mxPoint x="217.32999999999998" y="172" as="targetPoint" />
          </mxGeometry>
        </mxCell>
        <mxCell id="V2h9sWiuA5iDH5durcqd-21" value="req.body" style="text;html=1;align=center;verticalAlign=middle;resizable=0;points=[];autosize=1;" vertex="1" parent="1">
          <mxGeometry x="100" y="150" width="60" height="20" as="geometry" />
        </mxCell>
        <mxCell id="V2h9sWiuA5iDH5durcqd-22" value="returns:&#xa;err, res" style="verticalAlign=bottom;endArrow=block;shadow=0;strokeWidth=1;exitX=-0.2;exitY=0.898;exitDx=0;exitDy=0;exitPerimeter=0;" edge="1" parent="1" source="V2h9sWiuA5iDH5durcqd-19">
          <mxGeometry relative="1" as="geometry">
            <mxPoint x="475.3300000000004" y="389.99999999999994" as="sourcePoint" />
            <mxPoint x="40" y="390" as="targetPoint" />
          </mxGeometry>
        </mxCell>
        <mxCell id="V2h9sWiuA5iDH5durcqd-23" value="returns:&#xa;err, res" style="verticalAlign=bottom;endArrow=block;shadow=0;strokeWidth=1;exitX=-0.2;exitY=0.898;exitDx=0;exitDy=0;exitPerimeter=0;" edge="1" parent="1">
          <mxGeometry relative="1" as="geometry">
            <mxPoint x="33" y="430" as="sourcePoint" />
            <mxPoint x="-150" y="430.5" as="targetPoint" />
          </mxGeometry>
        </mxCell>
      </root>
    </mxGraphModel>
  </diagram>
</mxfile>
